<?xml version="1.0" encoding="utf-8"?>
<!DOCTYPE svg PUBLIC "-//W3C//DTD SVG 1.1//EN" "http://www.w3.org/Graphics/SVG/1.1/DTD/svg11.dtd">
<svg version="1.1" id="layer1" xmlns="http://www.w3.org/2000/svg" xmlns:xlink="http://www.w3.org/1999/xlink" x="0px" y="0px"
	  viewBox="0 0 100 100" enable-background="new 0 0 100 100" xml:space="preserve">
<g id="layer1">
	<rect class="color1" fill="#A7A9AC" width="100" height="100"/>
	<path class="color0" fill="#F37B82" d="M50,100L50,100c0-13.805-11.195-25-25-25S0,86.195,0,100l0,0H50z"/>
	<path class="color0" fill="#F37B82" d="M100,100L100,100c0-13.805-11.195-25-25-25s-25,11.195-25,25l0,0H100z"/>
	<path class="color0" fill="#F37B82" d="M50,0L50,0c0,13.805,11.195,25,25,25c13.805,0,25-11.195,25-25l0,0H50z"/>
	<path class="color0" fill="#F37B82" d="M0,0L0,0c0,13.805,11.195,25,25,25S50,13.805,50,0l0,0H0z"/>
</g>
</svg>
