<?xml version="1.0" encoding="utf-8"?>
<!-- Generator: Adobe Illustrator 16.0.4, SVG Export Plug-In . SVG Version: 6.00 Build 0)  -->
<!DOCTYPE svg PUBLIC "-//W3C//DTD SVG 1.1//EN" "http://www.w3.org/Graphics/SVG/1.1/DTD/svg11.dtd">
<svg version="1.1" id="Layer_1" xmlns="http://www.w3.org/2000/svg" xmlns:xlink="http://www.w3.org/1999/xlink" x="0px" y="0px"
	 width="200px" height="200px" viewBox="0 0 200 200" enable-background="new 0 0 200 200" xml:space="preserve">
<g>
	<rect x="0" y="0" fill="none" width="200" height="200"/>
	<path fill="#333333" d="M155.555,133.334h-22.222H111.11H88.889H66.666H44.445c-12.278,0-22.222,9.938-22.222,22.222
		c0,12.283,9.939,22.223,22.222,22.223h22.221h22.224h22.221h22.229h22.221c12.278,0,22.224-9.939,22.224-22.223
		C177.784,143.271,167.833,133.334,155.555,133.334z M155.559,166.666h-22.222H111.11H88.889H66.666H44.445
		c-6.133,0-11.111-4.977-11.111-11.11c0-6.133,4.976-11.111,11.111-11.111h22.221h22.224h22.221h22.224h22.222
		c6.132,0,11.112,4.979,11.116,11.111C166.672,161.689,161.691,166.666,155.559,166.666z"/>
	<polygon fill="#333333" points="55.555,155.555 50.001,152.777 44.445,155.555 55.555,161.111 66.666,155.555 61.111,152.777 	"/>
	<polygon fill="#333333" points="133.336,155.555 127.777,152.777 122.223,155.555 116.669,152.777 111.112,155.555 
		122.223,161.109 	"/>
	<polygon fill="#333333" points="100,155.555 94.443,152.777 88.889,155.555 100,161.111 111.11,155.555 105.558,152.777 	"/>
	<polygon fill="#333333" points="88.891,155.555 83.333,152.777 77.78,155.555 72.224,152.777 66.666,155.555 77.78,161.109 	"/>
	<polygon fill="#333333" points="149.999,152.777 144.444,155.555 138.89,152.777 133.336,155.555 144.444,161.111 155.555,155.555 
			"/>
</g>
</svg>
