<?xml version="1.0" encoding="utf-8"?>
<!-- Generator: Adobe Illustrator 16.0.4, SVG Export Plug-In . SVG Version: 6.00 Build 0)  -->
<!DOCTYPE svg PUBLIC "-//W3C//DTD SVG 1.1//EN" "http://www.w3.org/Graphics/SVG/1.1/DTD/svg11.dtd">
<svg version="1.1" id="Layer_1" xmlns="http://www.w3.org/2000/svg" xmlns:xlink="http://www.w3.org/1999/xlink" x="0px" y="0px"
	 width="200px" height="200px" viewBox="0 0 200 200" enable-background="new 0 0 200 200" xml:space="preserve">
<g>
	<rect x="0" y="0" fill="none" width="200" height="200"/>
	<path fill="#333333" d="M177.776,30.555h-22.221h-22.222H111.11h-8.332h-5.557h-8.332H66.666H44.445H22.223
		c-1.538,0-2.778,1.244-2.778,2.778c0,1.532,1.24,2.776,2.778,2.776h22.222h22.221h22.224h8.332v8.334v22.221v22.224l-8.332,22.221
		l5.551,2.778l5.556-2.778l5.557,2.778l5.558-2.778l-8.332-22.221V66.666V44.445V36.11h8.332h22.229h22.221h22.224
		c1.538,0,2.778-1.244,2.778-2.776C180.556,31.8,179.312,30.555,177.776,30.555z"/>
</g>
</svg>
