<?xml version="1.0" encoding="utf-8"?>
<!-- Generator: Adobe Illustrator 16.0.4, SVG Export Plug-In . SVG Version: 6.00 Build 0)  -->
<!DOCTYPE svg PUBLIC "-//W3C//DTD SVG 1.1//EN" "http://www.w3.org/Graphics/SVG/1.1/DTD/svg11.dtd">
<svg version="1.1" id="Layer_1" xmlns="http://www.w3.org/2000/svg" xmlns:xlink="http://www.w3.org/1999/xlink" x="0px" y="0px"
	 width="200px" height="200px" viewBox="0 0 200 200" enable-background="new 0 0 200 200" xml:space="preserve">
<g>
	<rect fill="none" width="200" height="200"/>
	<path fill="#333333" d="M69.843,77.846c-2.209,0-4-1.791-4-4c0-11.799-9.6-21.397-21.4-21.397c-11.799,0-21.397,9.599-21.397,21.397
		c0,2.209-1.791,4-4,4s-4-1.791-4-4c0-16.21,13.188-29.397,29.397-29.397c16.211,0,29.4,13.188,29.4,29.397
		C73.843,76.055,72.052,77.846,69.843,77.846z"/>
	<path fill="#333333" d="M180.959,77.847c-2.209,0-4-1.791-4-4c0-11.799-9.6-21.397-21.399-21.397c-11.802,0-21.402,9.599-21.402,21.397
		c0,2.209-1.791,4-4,4s-4-1.791-4-4c0-16.21,13.189-29.397,29.402-29.397c16.211,0,29.399,13.188,29.399,29.397
		C184.959,76.056,183.168,77.847,180.959,77.847z"/>
</g>
</svg>
