<?xml version="1.0" encoding="utf-8"?>
<!-- Generator: Adobe Illustrator 16.0.4, SVG Export Plug-In . SVG Version: 6.00 Build 0)  -->
<!DOCTYPE svg PUBLIC "-//W3C//DTD SVG 1.1//EN" "http://www.w3.org/Graphics/SVG/1.1/DTD/svg11.dtd">
<svg version="1.1" id="Layer_1" xmlns="http://www.w3.org/2000/svg" xmlns:xlink="http://www.w3.org/1999/xlink" x="0px" y="0px"
	 width="200px" height="200px" viewBox="0 0 200 200" enable-background="new 0 0 200 200" xml:space="preserve">
<g>
	<rect fill="none" width="200" height="200"/>
	<path fill="#333333" d="M44.443,52.146c-10.357,0-19.997,10.002-19.997,10.002s9.64,10.003,19.997,10.003
		c10.361,0,19.999-10.003,19.999-10.003S54.804,52.146,44.443,52.146z M44.443,69.148c-3.86,0-6.997-3.144-6.997-7
		s3.141-6.997,6.997-6.997c3.861,0,7,3.143,7,6.997C51.443,66.006,48.305,69.148,44.443,69.148z"/>
	<path fill="#333333" d="M155.56,52.147c-10.359,0-19.999,10.002-19.999,10.002s9.64,10.003,19.999,10.003
		c10.357,0,19.998-10.003,19.998-10.003S165.919,52.147,155.56,52.147z M155.56,69.149c-3.863,0-7-3.144-7-7s3.143-6.997,7-6.997
		c3.855,0,6.997,3.143,6.997,6.997C162.559,66.007,159.419,69.149,155.56,69.149z"/>
</g>
</svg>
