<?xml version="1.0" encoding="utf-8"?>
<!-- Generator: Adobe Illustrator 16.0.4, SVG Export Plug-In . SVG Version: 6.00 Build 0)  -->
<!DOCTYPE svg PUBLIC "-//W3C//DTD SVG 1.1//EN" "http://www.w3.org/Graphics/SVG/1.1/DTD/svg11.dtd">
<svg version="1.1" id="Layer_1" xmlns="http://www.w3.org/2000/svg" xmlns:xlink="http://www.w3.org/1999/xlink" x="0px" y="0px"
	 width="200px" height="200px" viewBox="0 0 200 200" enable-background="new 0 0 200 200" xml:space="preserve">
<g>
	<rect fill="none" width="200" height="200"/>
	<path fill="#333333" d="M130.162,44.45c2.209,0,4,1.791,4,4c0,11.799,9.6,21.397,21.4,21.397c11.799,0,21.396-9.599,21.396-21.397
		c0-2.209,1.791-4,4-4s4,1.791,4,4c0,16.21-13.188,29.397-29.396,29.397c-16.211,0-29.4-13.188-29.4-29.397
		C126.162,46.241,127.953,44.45,130.162,44.45z"/>
	<path fill="#333333" d="M19.046,44.449c2.209,0,4,1.791,4,4c0,11.799,9.6,21.397,21.398,21.397
		c11.803,0,21.402-9.599,21.402-21.397c0-2.209,1.791-4,4-4s4,1.791,4,4c0,16.21-13.189,29.397-29.402,29.397
		c-16.211,0-29.398-13.188-29.398-29.397C15.046,46.24,16.837,44.449,19.046,44.449z"/>
</g>
</svg>
