<?xml version="1.0" encoding="utf-8"?>
<!-- Generator: Adobe Illustrator 16.0.4, SVG Export Plug-In . SVG Version: 6.00 Build 0)  -->
<!DOCTYPE svg PUBLIC "-//W3C//DTD SVG 1.1//EN" "http://www.w3.org/Graphics/SVG/1.1/DTD/svg11.dtd">
<svg version="1.1" id="Layer_1" xmlns="http://www.w3.org/2000/svg" xmlns:xlink="http://www.w3.org/1999/xlink" x="0px" y="0px"
	 width="200px" height="200px" viewBox="0 0 200 200" enable-background="new 0 0 200 200" xml:space="preserve">
<g>
	<rect x="0" y="0" fill="none" width="200" height="200"/>
	<path fill="#333333" d="M73.368,50.378c-3.877-3.875-9.51-5.932-16.287-5.932c-6.778,0-12.414,2.054-16.29,5.932
		c-3.876,3.876-5.935,9.513-5.935,16.29c0,6.777,2.056,12.411,5.935,16.289c3.876,3.878,9.511,5.936,16.29,5.936
		c6.777,0,12.41-2.054,16.287-5.936c3.876-3.877,5.936-9.512,5.936-16.289C79.302,59.889,77.244,54.254,73.368,50.378z
		 M57.079,83.334c-10.745,0-16.666-5.921-16.666-16.667c0-10.742,5.921-16.666,16.666-16.666c10.742,0,16.667,5.923,16.667,16.666
		C73.746,77.413,67.823,83.334,57.079,83.334z"/>
	<path fill="#333333" d="M142.921,44.446c-6.777,0-12.41,2.054-16.289,5.932c-3.876,3.876-5.936,9.513-5.936,16.29
		c0,6.777,2.056,12.411,5.936,16.289c3.879,3.878,9.51,5.936,16.289,5.936c6.776,0,12.413-2.054,16.288-5.936
		c3.878-3.877,5.936-9.512,5.936-16.289c0-6.776-2.054-12.413-5.936-16.29C155.334,46.499,149.699,44.446,142.921,44.446z
		 M142.921,83.334c-10.744,0-16.667-5.921-16.667-16.667c0-10.742,5.923-16.666,16.667-16.666c10.742,0,16.666,5.923,16.666,16.666
		C159.589,77.413,153.667,83.334,142.921,83.334z"/>
	<path fill="#333333" d="M57.079,55.556c-6.133,0-11.111,4.98-11.111,11.111c0,6.134,4.98,11.114,11.111,11.114V66.667h11.112
		C68.19,60.532,63.213,55.556,57.079,55.556z"/>
	<path fill="#333333" d="M142.923,55.556c-6.134,0-11.114,4.98-11.114,11.111c0,6.134,4.98,11.114,11.114,11.114V66.667h11.113
		C154.032,60.532,149.054,55.556,142.923,55.556z"/>
</g>
</svg>
