<?xml version="1.0" encoding="utf-8"?>
<!-- Generator: Adobe Illustrator 16.0.4, SVG Export Plug-In . SVG Version: 6.00 Build 0)  -->
<!DOCTYPE svg PUBLIC "-//W3C//DTD SVG 1.1//EN" "http://www.w3.org/Graphics/SVG/1.1/DTD/svg11.dtd">
<svg version="1.1" id="Layer_1" xmlns="http://www.w3.org/2000/svg" xmlns:xlink="http://www.w3.org/1999/xlink" x="0px" y="0px"
	 width="200px" height="200px" viewBox="0 0 200 200" enable-background="new 0 0 200 200" xml:space="preserve">
<g>
	<rect fill="none" width="200" height="200"/>
	<path fill="#808080" d="M166.666,50c-9.206,0-16.668-7.462-16.668-16.667l0,0c0-9.204-7.461-16.666-16.666-16.666
		c-9.203,0-16.667-7.46-16.667-16.667c0,9.205-7.462,16.667-16.666,16.667c-9.202,0-16.665-7.462-16.665-16.667
		c0,9.205-7.462,16.667-16.667,16.667C57.462,16.667,50,24.129,50,33.333l0,0C50,42.538,42.539,50,33.333,50
		c-9.204,0-16.666,7.462-16.666,16.667l0,0V100v33.334c0,9.202,7.462,16.666,16.666,16.666C42.539,150,50,157.461,50,166.667
		c0,9.205,7.462,16.667,16.667,16.667c9.205,0,16.667,7.461,16.667,16.666h33.331c0-9.205,7.464-16.666,16.667-16.666
		c9.204,0,16.666-7.462,16.666-16.667c0-9.206,7.462-16.667,16.668-16.667c9.203,0,16.666-7.464,16.666-16.666V100V66.667l0,0
		C183.332,57.463,175.869,50,166.666,50z"/>
</g>
</svg>
