<?xml version="1.0" encoding="utf-8"?>
<!-- Generator: Adobe Illustrator 16.0.4, SVG Export Plug-In . SVG Version: 6.00 Build 0)  -->
<!DOCTYPE svg PUBLIC "-//W3C//DTD SVG 1.1//EN" "http://www.w3.org/Graphics/SVG/1.1/DTD/svg11.dtd">
<svg version="1.1" id="Layer_1" xmlns="http://www.w3.org/2000/svg" xmlns:xlink="http://www.w3.org/1999/xlink" x="0px" y="0px"
	 width="200px" height="200px" viewBox="0 0 200 200" enable-background="new 0 0 200 200" xml:space="preserve">
<g>
	<rect fill="none" width="200" height="200"/>
	<path fill="#808080" d="M147.622,163.499l0.002-0.001c17.54-0.001,31.747-14.208,31.747-31.75c0-17.54,3.088-31.748,20.629-31.748
		c-17.541,0-20.629-14.207-20.629-31.748s-14.207-31.748-31.746-31.749v-0.001l-0.002-0.002
		c-0.001-17.541-14.208-31.747-31.748-31.747H84.126c-17.54,0-31.747,14.208-31.748,31.748l-0.001,0.001
		C34.837,36.504,20.631,50.709,20.63,68.25l-0.002,0.002v0.171C20.535,85.885,17.484,100,0,100
		c17.484,0,20.535,14.115,20.627,31.576v0.171l0.002,0.002c0.001,17.539,14.207,31.745,31.745,31.746l0.001,0.001l0.002,0.002
		c0.001,17.541,14.208,31.747,31.748,31.747h31.748C133.415,195.247,147.622,181.039,147.622,163.499z"/>
</g>
</svg>
