<?xml version="1.0" encoding="utf-8"?>
<!-- Generator: Adobe Illustrator 16.0.4, SVG Export Plug-In . SVG Version: 6.00 Build 0)  -->
<!DOCTYPE svg PUBLIC "-//W3C//DTD SVG 1.1//EN" "http://www.w3.org/Graphics/SVG/1.1/DTD/svg11.dtd">
<svg version="1.1" id="Layer_1" xmlns="http://www.w3.org/2000/svg" xmlns:xlink="http://www.w3.org/1999/xlink" x="0px" y="0px"
	 width="200px" height="200px" viewBox="0 0 200 200" enable-background="new 0 0 200 200" xml:space="preserve">
<g>
	<rect x="1.001" fill="none" width="200" height="200"/>
	<path fill="#808080" d="M157.145,57.144l-0.002-0.001c0-15.785-12.785-28.57-28.572-28.57C112.786,28.573,100,15.785,100,0
		c0,15.785-12.786,28.573-28.571,28.573c-15.785,0-28.57,12.785-28.571,28.569h-0.001l-0.002,0.002
		c-15.786,0.002-28.57,12.787-28.57,28.571v28.57c0,15.785,12.786,28.57,28.57,28.57l0.001,0.002
		c0.001,15.783,12.785,28.567,28.57,28.568l0.002,0.002h0.154C87.298,171.512,100,184.268,100,200
		c0-15.732,12.702-28.488,28.416-28.57h0.154l0.002-0.003c15.783-0.001,28.566-12.784,28.568-28.567l0.002-0.002l0.002-0.002
		c15.785,0,28.569-12.787,28.569-28.57v-28.57C185.714,69.93,172.93,57.145,157.145,57.144z"/>
</g>
</svg>
