<?xml version="1.0" encoding="utf-8"?>
<!-- Generator: Adobe Illustrator 16.0.4, SVG Export Plug-In . SVG Version: 6.00 Build 0)  -->
<!DOCTYPE svg PUBLIC "-//W3C//DTD SVG 1.1//EN" "http://www.w3.org/Graphics/SVG/1.1/DTD/svg11.dtd">
<svg version="1.1" xmlns="http://www.w3.org/2000/svg" xmlns:xlink="http://www.w3.org/1999/xlink" x="0px" y="0px" width="200px"
	 height="200px" viewBox="0 0 200 200" enable-background="new 0 0 200 200" xml:space="preserve">
<g id="Layer_6" display="none">
	
		<image display="inline" overflow="visible" opacity="0.4" width="1102" height="1100" xlink:href="../../../../Screen Shot 2019-11-18 at 8.59.42 AM.png"  transform="matrix(1.279 0 0 1.2033 -165.9023 -529.7109)">
	</image>
</g>
<g id="layer1" display="none">
	<rect display="inline" fill="#FFFFFF" fill-opacity="0" width="200" height="200"/>
	<rect x="50" display="inline" fill="#AAAAAA" width="33.333" height="200"/>
	<rect x="116.667" display="inline" fill="#AAAAAA" width="33.333" height="200"/>
</g>
<g id="layer1_copy" display="none">
	<rect display="inline" fill="#FFFFFF" fill-opacity="0" width="200" height="200"/>
	<rect x="50" display="inline" fill="#AAAAAA" width="33.333" height="200"/>
	<rect x="116.667" y="116.667" display="inline" fill="#AAAAAA" width="33.333" height="83.333"/>
	<rect x="116.667" display="inline" fill="#AAAAAA" width="33.333" height="83.333"/>
	<rect x="116.667" y="50" display="inline" fill="#AAAAAA" width="83.333" height="33.333"/>
	<rect x="116.667" y="116.667" display="inline" fill="#AAAAAA" width="83.333" height="33.333"/>
	<circle display="inline" fill="#AAAAAA" cx="133.333" cy="66.667" r="16.667"/>
</g>
<g id="layer1_copy_2" display="none">
	<rect display="inline" fill="#FFFFFF" fill-opacity="0" width="200" height="200"/>
	<rect x="50" display="inline" fill="#AAAAAA" width="33.333" height="200"/>
	<path display="inline" fill="#AAAAAA" d="M158.332,49.999c-4.596,0-8.321-3.721-8.332-8.314V0h-33.333v50v16.667
		c0,9.205,7.462,16.667,16.667,16.667H150h50V50L158.332,49.999z"/>
	<path display="inline" fill="#AAAAAA" d="M150.002,158.332c0-4.596,3.721-8.321,8.313-8.332H200v-33.333h-50h-16.666
		c-9.205,0-16.667,7.462-16.667,16.667V150v50H150L150.002,158.332z"/>
	<polygon fill="#AAAAAA" points="150,50 150,0 116.667,0 116.667,50 116.667,83.333 150,83.333 200,83.333 200,50 	"/>
</g>
<g id="layer1_copy_4" display="none">
	<rect display="inline" fill="#FFFFFF" fill-opacity="0" width="200" height="200"/>
	<circle fill="#75C698" cx="200" cy="200" r="150"/>
	<path fill="#AAAAAA" d="M150.002,158.332c0-4.596,3.721-8.321,8.313-8.332H200v-33.333h-50h-16.666
		c-9.205,0-16.667,7.462-16.667,16.667V150v50H150L150.002,158.332z"/>
	<polygon fill="#AAAAAA" points="150,50 150,0 116.667,0 116.667,50 116.667,83.333 150,83.333 200,83.333 200,50 	"/>
	<rect x="50" y="50" fill="#AAAAAA" width="33.333" height="150"/>
	<rect x="50" y="50" fill="#AAAAAA" width="150" height="33.333"/>
	<rect x="116.667" y="116.667" fill="#AAAAAA" width="83.333" height="33.333"/>
	<rect x="116.667" y="116.667" fill="#AAAAAA" width="33.333" height="83.333"/>
	<circle display="inline" opacity="0.3" fill="#478DCB" cx="125" cy="124.999" r="75"/>
	<circle display="inline" opacity="0.3" fill="#AAD037" cx="135" cy="135" r="50"/>
	<g>
		<circle display="inline" opacity="0.3" fill="#AAD037" cx="150" cy="147.5" r="37.5"/>
		<circle display="inline" opacity="0.3" fill="#AAD037" cx="160.333" cy="156.5" r="12.5"/>
	</g>
</g>
<g id="layer1_copy_5">
	<rect fill="#FFFFFF" fill-opacity="0" width="200" height="200"/>
	<circle display="none" fill="#75C698" cx="200" cy="200" r="150"/>
	<path display="none" fill="#AAAAAA" d="M150.002,158.332c0-4.596,3.721-8.321,8.313-8.332H200v-33.333h-50h-16.666
		c-9.205,0-16.667,7.462-16.667,16.667V150v50H150L150.002,158.332z"/>
	<polygon display="none" fill="#AAAAAA" points="150,50 150,0 116.667,0 116.667,50 116.667,83.333 150,83.333 200,83.333 200,50 	
		"/>
	<polygon display="none" fill="#AAAAAA" points="200,50 83.333,50 50,50 50,83.333 50,200 83.333,200 83.333,83.333 200,83.333 	"/>
	<rect x="116.667" y="116.667" display="none" fill="#AAAAAA" width="83.333" height="33.333"/>
	<rect x="116.667" y="116.667" display="none" fill="#AAAAAA" width="33.333" height="83.333"/>
	<circle display="none" opacity="0.3" fill="#AAD037" cx="133.334" cy="133.333" r="50"/>
	<g display="none">
		<circle display="inline" opacity="0.3" fill="#AAD037" cx="150" cy="147.5" r="37.5"/>
		<circle display="inline" opacity="0.3" fill="#AAD037" cx="160.333" cy="156.5" r="12.5"/>
	</g>
	<path fill="#AAAAAA" d="M125,50c-41.422,0-75,33.579-75,75v75h33.333v-12.639v-54.028c0-27.614,22.386-50,50.001-50h54.028H200V50
		H125z"/>
</g>
<g id="layer1_copy_3" display="none">
	<rect display="inline" fill="#FFFFFF" fill-opacity="0" width="200" height="200"/>
	<path display="inline" fill="#AAAAAA" d="M158.332,49.999c-4.596,0-8.321-3.721-8.332-8.314V0h-33.333v50v16.667
		c0,9.205,7.462,16.667,16.667,16.667H150h50V50L158.332,49.999z"/>
	<path display="inline" fill="#AAAAAA" d="M150.002,158.332c0-4.596,3.721-8.321,8.313-8.332H200v-33.333h-50h-16.666
		c-9.205,0-16.667,7.462-16.667,16.667V150v50H150L150.002,158.332z"/>
	<path display="inline" fill="#AAAAAA" d="M41.668,150.001c4.596,0,8.321,3.721,8.332,8.314V200h33.333v-50v-16.667
		c0-9.205-7.462-16.667-16.667-16.667H50H0V150L41.668,150.001z"/>
	<path display="inline" fill="#AAAAAA" d="M49.998,41.668c0,4.596-3.721,8.321-8.313,8.332H0v33.333h50h16.666
		c9.205,0,16.667-7.462,16.667-16.667V50V0H50L49.998,41.668z"/>
</g>
</svg>
