<?xml version="1.0" encoding="utf-8"?>
<!DOCTYPE svg PUBLIC "-//W3C//DTD SVG 1.1//EN" "http://www.w3.org/Graphics/SVG/1.1/DTD/svg11.dtd">
<svg version="1.1" id="layer1" xmlns="http://www.w3.org/2000/svg" xmlns:xlink="http://www.w3.org/1999/xlink" x="0px" y="0px"
	  viewBox="0 0 200 200" enable-background="new 0 0 200 200" xml:space="preserve">
	  <g>
	<rect class="color1" fill="#FFFFFF" fill-opacity="0" width="200" height="200"/>
	<path class="color0" fill="#AAAAAA" d="M125,0H75c0,41.4-33.6,75-75,75v50c41.4,0,75,33.6,75,75h50c0-41.4,33.6-75,75-75V75
		C158.6,75,125,41.4,125,0z M100,125c-7.1-9.5-15.5-17.9-25-25c9.5-7.1,17.9-15.5,25-25c7.1,9.5,15.5,17.9,25,25
		C115.5,107.1,107.1,115.5,100,125z"/>
</g>
</svg>
