<?xml version="1.0" encoding="utf-8"?>
<!DOCTYPE svg PUBLIC "-//W3C//DTD SVG 1.1//EN" "http://www.w3.org/Graphics/SVG/1.1/DTD/svg11.dtd">
<svg version="1.1" id="layer1" xmlns="http://www.w3.org/2000/svg" xmlns:xlink="http://www.w3.org/1999/xlink" x="0px" y="0px"
	  viewBox="0 0 200 200" enable-background="new 0 0 200 200" xml:space="preserve">
	  <g>
	<rect class="color1" fill="#FFFFFF" fill-opacity="0" width="200" height="200"/>
	<path class="color0" fill="#AAAAAA" d="M100,150L100,150c0-27.6-22.4-50-50-50S0,122.4,0,150l0,0H100z"/>
	<path class="color0" fill="#AAAAAA" d="M200,150L200,150c0-27.6-22.4-50-50-50s-50,22.4-50,50l0,0H200z"/>
	<path class="color0" fill="#AAAAAA" d="M100,50L100,50c0,27.6,22.4,50,50,50s50-22.4,50-50l0,0H100z"/>
	<path class="color0" fill="#AAAAAA" d="M0,50L0,50c0,27.6,22.4,50,50,50s50-22.4,50-50l0,0H0z"/>
</g>
</svg>
