<?xml version="1.0" encoding="utf-8"?>
<!DOCTYPE svg PUBLIC "-//W3C//DTD SVG 1.1//EN" "http://www.w3.org/Graphics/SVG/1.1/DTD/svg11.dtd">
<svg version="1.1" id="layer1" xmlns="http://www.w3.org/2000/svg" xmlns:xlink="http://www.w3.org/1999/xlink" x="0px" y="0px"
	  viewBox="0 0 200 200" enable-background="new 0 0 200 200" xml:space="preserve">
	  <g>
	<rect class="color1" fill="#FFFFFF" fill-opacity="0" width="200" height="200"/>
	<path class="color0" fill="#AAAAAA" d="M154.188,116.667c-0.008,0-0.014,0-0.021,0s-0.013,0-0.021,0c-20.701,0.011-37.479,16.795-37.479,37.5V200
		H150v-8.568V162.5c0-6.904,5.598-12.5,12.5-12.5h28.932H200v-33.333H154.188z"/>
	<path class="color0" fill="#AAAAAA" d="M116.667,45.813c0,0.007,0,0.013,0,0.02s0,0.013,0,0.02c0.011,20.702,16.795,37.48,37.5,37.48H200V50
		h-8.568H162.5c-6.902,0-12.5-5.597-12.5-12.5V8.568V0h-33.333V45.813z"/>
	<rect x="50" class="color0" fill="#AAAAAA" width="33.333" height="200"/>
</g>
</svg>
